<svg width="19" height="19" viewBox="0 0 19 19" fill="none" xmlns="http://www.w3.org/2000/svg">
<path fill-rule="evenodd" clip-rule="evenodd" d="M2.75723 0.83625C2.49954 0.59613 2.1587 0.465407 1.80653 0.471621C1.45436 0.477834 1.11835 0.6205 0.86929 0.869561C0.620229 1.11862 0.477563 1.45463 0.47135 1.8068C0.465136 2.15897 0.595859 2.49981 0.835979 2.7575L7.57848 9.5L0.835979 16.2425C0.702422 16.367 0.595299 16.517 0.521001 16.6838C0.446703 16.8505 0.406752 17.0305 0.403532 17.2131C0.400311 17.3956 0.433887 17.5769 0.502257 17.7461C0.570626 17.9154 0.672388 18.0692 0.801472 18.1983C0.930556 18.3273 1.08432 18.4291 1.25358 18.4975C1.42285 18.5658 1.60415 18.5994 1.78668 18.5962C1.9692 18.593 2.14921 18.553 2.31595 18.4787C2.4827 18.4044 2.63278 18.2973 2.75723 18.1637L9.49973 11.4213L16.2422 18.1637C16.3667 18.2973 16.5168 18.4044 16.6835 18.4787C16.8503 18.553 17.0303 18.593 17.2128 18.5962C17.3953 18.5994 17.5766 18.5658 17.7459 18.4975C17.9151 18.4291 18.0689 18.3273 18.198 18.1983C18.3271 18.0692 18.4288 17.9154 18.4972 17.7461C18.5656 17.5769 18.5991 17.3956 18.5959 17.2131C18.5927 17.0305 18.5528 16.8505 18.4785 16.6838C18.4042 16.517 18.297 16.367 18.1635 16.2425L11.421 9.5L18.1635 2.7575C18.4036 2.49981 18.5343 2.15897 18.5281 1.8068C18.5219 1.45463 18.3792 1.11862 18.1302 0.869561C17.8811 0.6205 17.5451 0.477834 17.1929 0.471621C16.8408 0.465407 16.4999 0.59613 16.2422 0.83625L9.49973 7.57875L2.75723 0.83625Z" fill="black"/>
</svg>
