<svg width="20" height="26" viewBox="0 0 20 26" fill="none" xmlns="http://www.w3.org/2000/svg">
<path d="M9.73372 0.199951C10.7946 0.199951 11.812 0.621379 12.5622 1.37152C13.3123 2.12167 13.7337 3.13909 13.7337 4.19995V12.2C13.7337 13.2608 13.3123 14.2782 12.5622 15.0284C11.812 15.7785 10.7946 16.2 9.73372 16.2C8.67286 16.2 7.65544 15.7785 6.9053 15.0284C6.15515 14.2782 5.73372 13.2608 5.73372 12.2V4.19995C5.73372 3.13909 6.15515 2.12167 6.9053 1.37152C7.65544 0.621379 8.67286 0.199951 9.73372 0.199951ZM19.0671 12.2C19.0671 16.9066 15.5871 20.7866 11.0671 21.44V25.5333H8.40039V21.44C3.88039 20.7866 0.400391 16.9066 0.400391 12.2H3.06706C3.06706 13.9681 3.76944 15.6638 5.01968 16.914C6.26992 18.1642 7.96561 18.8666 9.73372 18.8666C11.5018 18.8666 13.1975 18.1642 14.4478 16.914C15.698 15.6638 16.4004 13.9681 16.4004 12.2H19.0671Z" fill="#333333"/>
</svg>
